# xmcd CD database file
#
# Track frame offsets:
#	150
#	18227
#	41704
#	70281
#	73433
#	95410
#	117012
#	138689
#	143491
#	162543
#	188645
#	208597
#	223224
#
# Disc length: 3260 seconds
#
# Revision: 3
# Processed by: cddbd v1.5.2PL0 Copyright (c) Steve Scherf et al.
# Submitted via: CDex 1.51
#
DISCID=ca0cba0d
DTITLE=Little Axe - Champagne and Grits
DYEAR=2004
DGENRE=Blues
TTITLE0=Grinning in Your Face
TTITLE1=Finger on the Trigger
TTITLE2=Mean Things
TTITLE3=Way I See It
TTITLE4=Walk on Water
TTITLE5=Go Away Devil
TTITLE6=Say My Name
TTITLE7=Take Me Back to the Country
TTITLE8=All in the Same Boat
TTITLE9=Living and Sleeping in a Dangerous Time
TTITLE10=Will I Ever Get Back Home Again?
TTITLE11=Cloud
TTITLE12=Sinners
EXTD=YEAR: 2004
EXTT0=
EXTT1=
EXTT2=
EXTT3=
EXTT4=
EXTT5=
EXTT6=
EXTT7=
EXTT8=
EXTT9=
EXTT10=
EXTT11=
EXTT12=
PLAYORDER=
